# Blender v3.2.2 OBJ File: 'FSO Polonez Caro MR93 (LP).blend'
# www.blender.org
mtllib polonez.mtl
o Cube
v 0.802897 0.266429 -0.948270
v 0.000000 1.387797 0.186702
v 0.000000 1.387797 -1.181969
v 0.542774 1.350379 0.246489
v 0.802897 0.359782 -1.612825
v 0.547334 1.360842 -1.238406
v 0.767456 0.463639 -0.972754
v 0.000000 0.972042 0.850993
v 0.662558 1.009460 0.791207
v 0.802897 0.286436 0.850993
v 0.747450 0.827629 1.755560
v 0.802897 0.261243 1.755560
v 0.722910 0.745827 1.989655
v 0.722910 0.470016 2.160495
v 0.000000 0.937703 -2.129879
v 0.000000 0.495392 -2.238710
v 0.802897 0.495392 -2.238710
v 0.682177 1.067205 -1.868512
v 0.781354 0.481304 1.755560
v 0.601372 1.387797 -0.255906
v 0.601372 1.387797 0.186702
v 0.747450 0.972042 0.850993
v 0.677530 0.964024 0.186702
v 0.740008 0.964024 0.768308
v 0.608627 1.347429 0.186702
v 0.677530 0.964024 -0.211505
v 0.608627 1.347429 -0.211505
v 0.677530 0.964024 -1.181969
v 0.609137 1.344589 -0.288186
v 0.677530 0.964024 -0.288186
v 0.609137 1.344589 -0.938555
v 0.610158 1.338909 -1.181969
v 0.704296 0.969704 -1.668445
v 0.679639 0.969704 -1.236759
v 0.610158 1.338909 -1.006716
v 0.737367 0.631068 -1.181969
v 0.802897 0.266185 1.578142
v 0.771853 0.495645 1.540862
v 0.782745 0.631983 1.200698
v 0.806818 0.513567 0.941461
v 0.761323 0.584770 -1.455711
v 0.784719 0.511208 0.850993
v 0.762021 0.493881 0.186702
v 0.782913 0.642006 -2.211287
v 0.000000 0.634763 -2.211748
v 0.401127 0.638476 -2.211512
v 0.722910 0.695854 2.020609
v 0.722910 0.563016 2.102890
v 0.437655 0.690782 2.023751
v 0.324337 0.563203 2.102774
v 0.411539 0.661379 2.041963
v 0.502102 0.945543 -2.129879
v 0.754489 0.949481 -2.129879
v 0.601372 1.387797 -1.181969
v 0.458952 0.814325 -2.164763
v 0.766901 0.815213 -2.165428
v 0.645212 0.694472 2.021465
v 0.633564 0.563058 2.102864
v 0.774933 0.046654 1.320802
v 0.774933 0.356638 1.448472
v 0.774933 0.174324 1.010819
v 0.774933 0.484307 1.138489
v 0.774933 0.357223 1.006895
v 0.774933 0.042730 1.137903
v 0.774933 0.488232 1.321388
v 0.774933 0.173739 1.452396
v 0.774933 0.387181 0.934158
v 0.774933 0.144558 0.939363
v 0.774933 -0.030007 1.107946
v 0.774933 0.560969 1.351346
v 0.774933 0.386404 1.519928
v 0.774933 0.143781 1.525133
v 0.774933 -0.024801 1.350568
v 0.774933 0.555763 1.108723
v 0.774933 0.060788 -1.180890
v 0.774933 0.370771 -1.053220
v 0.774933 0.188458 -1.490873
v 0.774933 0.498441 -1.363203
v 0.774933 0.371357 -1.494797
v 0.774933 0.056864 -1.363789
v 0.774933 0.502365 -1.180305
v 0.774933 0.187873 -1.049296
v 0.774933 0.401315 -1.567535
v 0.774933 0.158692 -1.562329
v 0.774933 -0.015873 -1.393747
v 0.774933 0.575103 -1.150347
v 0.774933 0.400538 -0.981765
v 0.774933 0.157915 -0.976559
v 0.774933 -0.010667 -1.151124
v 0.774933 0.569897 -1.392970
v -0.802897 0.266429 -0.948270
v -0.542774 1.350379 0.246489
v -0.802897 0.359782 -1.612825
v -0.547334 1.360842 -1.238406
v -0.767456 0.463639 -0.972754
v -0.662558 1.009460 0.791207
v -0.802897 0.286436 0.850993
v -0.747450 0.827629 1.755560
v -0.802897 0.261243 1.755560
v -0.722910 0.745827 1.989655
v -0.722910 0.470016 2.160495
v -0.802897 0.495392 -2.238710
v -0.682177 1.067205 -1.868512
v -0.781354 0.481304 1.755560
v -0.601372 1.387797 -0.255906
v -0.601372 1.387797 0.186702
v -0.747450 0.972042 0.850993
v -0.677530 0.964024 0.186702
v -0.740008 0.964024 0.768308
v -0.608627 1.347429 0.186702
v -0.677530 0.964024 -0.211505
v -0.608627 1.347429 -0.211505
v -0.677530 0.964024 -1.181969
v -0.609137 1.344589 -0.288186
v -0.677530 0.964024 -0.288186
v -0.609137 1.344589 -0.938555
v -0.610158 1.338909 -1.181969
v -0.704296 0.969704 -1.668445
v -0.679639 0.969704 -1.236759
v -0.610158 1.338909 -1.006716
v -0.737367 0.631068 -1.181969
v -0.802897 0.266185 1.578142
v -0.771853 0.495645 1.540862
v -0.782745 0.631983 1.200698
v -0.806818 0.513567 0.941461
v -0.761323 0.584770 -1.455711
v -0.784719 0.511208 0.850993
v -0.762021 0.493881 0.186702
v -0.782913 0.642006 -2.211287
v -0.401127 0.638476 -2.211512
v -0.722910 0.695854 2.020609
v -0.722910 0.563016 2.102890
v -0.437655 0.690782 2.023751
v -0.324337 0.563203 2.102774
v -0.411539 0.661379 2.041963
v -0.502102 0.945543 -2.129879
v -0.754489 0.949481 -2.129879
v -0.601372 1.387797 -1.181969
v -0.458952 0.814325 -2.164763
v -0.766901 0.815213 -2.165428
v -0.645212 0.694472 2.021465
v -0.633564 0.563058 2.102864
v -0.774933 0.046654 1.320802
v -0.774933 0.356638 1.448472
v -0.774933 0.174324 1.010819
v -0.774933 0.484307 1.138489
v -0.774933 0.357223 1.006895
v -0.774933 0.042730 1.137903
v -0.774933 0.488232 1.321388
v -0.774933 0.173739 1.452396
v -0.774933 0.387181 0.934158
v -0.774933 0.144558 0.939363
v -0.774933 -0.030007 1.107946
v -0.774933 0.560969 1.351346
v -0.774933 0.386404 1.519928
v -0.774933 0.143781 1.525133
v -0.774933 -0.024801 1.350568
v -0.774933 0.555763 1.108723
v -0.774933 0.060788 -1.180890
v -0.774933 0.370771 -1.053220
v -0.774933 0.188458 -1.490873
v -0.774933 0.498441 -1.363203
v -0.774933 0.371357 -1.494797
v -0.774933 0.056864 -1.363789
v -0.774933 0.502365 -1.180305
v -0.774933 0.187873 -1.049296
v -0.774933 0.401315 -1.567535
v -0.774933 0.158692 -1.562329
v -0.774933 -0.015873 -1.393747
v -0.774933 0.575103 -1.150347
v -0.774933 0.400538 -0.981765
v -0.774933 0.157915 -0.976559
v -0.774933 -0.010667 -1.151124
v -0.774933 0.569897 -1.392970
vn -0.9842 0.1769 0.0000
vn -0.0000 0.9036 -0.4284
vn 0.9867 0.1305 0.0966
vn 0.0000 0.9440 0.3299
vn 0.0000 0.5266 0.8501
vn 0.9827 0.1766 0.0561
vn 0.0000 0.8477 0.5305
vn 0.0000 1.0000 0.0000
vn 0.9842 0.1769 -0.0000
vn 0.9859 0.1654 0.0251
vn 0.9920 0.1213 -0.0363
vn 0.9788 0.1759 -0.1051
vn 0.9953 0.0949 0.0194
vn 0.9890 0.1339 0.0624
vn 0.9856 0.0926 0.1415
vn 0.9891 0.1290 -0.0712
vn -0.0031 0.2594 -0.9658
vn 0.0000 0.9024 -0.4310
vn -0.0435 0.9032 -0.4269
vn -0.9867 0.1305 0.0966
vn -0.9827 0.1766 0.0561
vn -0.9859 0.1654 0.0251
vn -0.9920 0.1213 -0.0363
vn -0.9788 0.1759 -0.1051
vn -0.9953 0.0949 0.0194
vn -0.9890 0.1339 0.0624
vn -0.9856 0.0926 0.1415
vn -0.9891 0.1290 -0.0712
vn 0.0031 0.2594 -0.9658
vn 0.0435 0.9032 -0.4269
vn 0.0000 0.9875 0.1577
vn 0.9865 0.1635 -0.0080
vn -0.0006 0.1868 -0.9824
vn 0.9680 0.0783 -0.2385
vn 0.9848 0.0964 0.1448
vn 0.9932 0.1147 -0.0184
vn 0.9886 0.1460 0.0358
vn 0.0000 0.9063 -0.4227
vn 0.0000 -0.9773 -0.2118
vn 1.0000 -0.0000 0.0000
vn 0.9830 0.1791 0.0399
vn -0.9865 0.1635 -0.0080
vn 0.0006 0.1868 -0.9824
vn -0.9680 0.0783 -0.2385
vn -0.9848 0.0964 0.1448
vn -0.9932 0.1147 -0.0184
vn -0.9886 0.1460 0.0358
vn -1.0000 0.0000 0.0000
vn -0.9830 0.1791 0.0399
vn 0.0000 -0.8888 0.4583
vn -0.0034 0.2568 -0.9665
vn 0.0034 0.2568 -0.9665
vn -0.0023 0.2567 -0.9665
vn 0.0023 0.2567 -0.9665
usemtl body
s off
f 105//1 114//1 115//1 111//1 112//1
f 15//2 136//2 137//2 103//2 18//2 53//2 52//2
f 54//3 32//3 33//3 53//3
f 98//4 100//4 13//4 11//4
f 13//5 100//5 131//5 141//5 133//5 135//5 51//5 49//5 57//5 47//5
f 101//5 14//5 48//5 58//5 50//5 134//5 142//5 132//5
f 34//6 28//6 36//6 41//6 33//6
f 4//7 21//7 2//7
f 9//7 8//7 22//7
f 4//7 9//7 22//7 21//7
f 138//8 105//8 106//8 2//8 21//8 20//8 54//8 3//8
f 20//9 29//9 31//9 35//9 32//9 54//9
f 28//10 34//10 35//10 31//10
f 40//11 42//11 22//11 39//11
f 27//9 20//9 21//9 25//9
f 22//12 24//12 25//12 21//12
f 19//13 38//13 39//13 22//13 11//13
f 53//14 33//14 41//14 44//14 56//14
f 14//15 19//15 11//15 13//15 47//15 48//15
f 26//9 30//9 29//9 20//9 27//9
f 42//16 43//16 23//16 24//16 22//16
f 52//17 55//17 46//17 45//17 15//17
f 6//18 3//18 54//18
f 18//19 6//19 54//19 53//19
f 138//20 137//20 118//20 117//20
f 119//21 118//21 126//21 121//21 113//21
f 92//7 2//7 106//7
f 96//7 107//7 8//7
f 92//7 106//7 107//7 96//7
f 105//1 138//1 117//1 120//1 116//1 114//1
f 113//22 116//22 120//22 119//22
f 125//23 124//23 107//23 127//23
f 112//1 110//1 106//1 105//1
f 107//24 106//24 110//24 109//24
f 104//25 98//25 107//25 124//25 123//25
f 137//26 140//26 129//26 126//26 118//26
f 101//27 132//27 131//27 100//27 98//27 104//27
f 43//9 7//9 36//9 28//9 30//9 26//9 23//9
f 127//28 107//28 109//28 108//28 128//28
f 136//29 15//29 45//29 130//29 139//29
f 94//18 138//18 3//18
f 103//30 137//30 138//30 94//30
f 128//1 108//1 111//1 115//1 113//1 121//1 95//1
f 107//31 98//31 11//31 22//31 8//31
usemtl black
f 10//32 1//32 7//32 43//32 42//32
f 16//33 45//33 46//33 44//33 17//33
f 10//34 42//34 40//34
f 51//5 135//5 134//5 50//5
f 12//35 19//35 14//35
f 25//12 24//12 23//12
f 23//9 26//9 27//9 25//9
f 31//9 29//9 30//9 28//9
f 38//36 19//36 12//36 37//36
f 44//37 41//37 5//37 17//37
f 92//7 96//7 8//7 9//7 4//7 2//7
f 18//38 103//38 94//38 3//38 6//38
f 93//39 102//39 16//39 17//39 5//39
f 63//40 61//40 68//40 67//40
f 61//40 64//40 69//40 68//40
f 60//40 65//40 70//40 71//40
f 59//40 66//40 72//40 73//40
f 62//40 63//40 67//40 74//40
f 64//40 59//40 73//40 69//40
f 65//40 62//40 74//40 70//40
f 66//40 60//40 71//40 72//40
f 79//40 77//40 84//40 83//40
f 77//40 80//40 85//40 84//40
f 76//40 81//40 86//40 87//40
f 75//40 82//40 88//40 89//40
f 78//40 79//40 83//40 90//40
f 80//40 75//40 89//40 85//40
f 81//40 78//40 90//40 86//40
f 82//40 76//40 87//40 88//40
f 32//41 35//41 34//41 33//41
f 97//42 127//42 128//42 95//42 91//42
f 16//43 102//43 129//43 130//43 45//43
f 97//44 125//44 127//44
f 99//45 101//45 104//45
f 110//24 108//24 109//24
f 108//1 110//1 112//1 111//1
f 116//1 113//1 115//1 114//1
f 123//46 122//46 99//46 104//46
f 129//47 102//47 93//47 126//47
f 147//48 151//48 152//48 145//48
f 145//48 152//48 153//48 148//48
f 144//48 155//48 154//48 149//48
f 143//48 157//48 156//48 150//48
f 146//48 158//48 151//48 147//48
f 148//48 153//48 157//48 143//48
f 149//48 154//48 158//48 146//48
f 150//48 156//48 155//48 144//48
f 163//48 167//48 168//48 161//48
f 161//48 168//48 169//48 164//48
f 160//48 171//48 170//48 165//48
f 159//48 173//48 172//48 166//48
f 162//48 174//48 167//48 163//48
f 164//48 169//48 173//48 159//48
f 165//48 170//48 174//48 162//48
f 166//48 172//48 171//48 160//48
f 117//49 118//49 119//49 120//49
f 14//50 101//50 99//50 12//50
usemtl orange
f 47//5 57//5 58//5 48//5
f 56//51 55//51 52//51 53//51
f 131//5 132//5 142//5 141//5
f 140//52 137//52 136//52 139//52
usemtl red
f 44//53 46//53 55//53 56//53
f 129//54 140//54 139//54 130//54
usemtl white
f 58//5 57//5 49//5 51//5 50//5
f 63//40 62//40 65//40 60//40 66//40 59//40 64//40 61//40
f 79//40 78//40 81//40 76//40 82//40 75//40 80//40 77//40
f 142//5 134//5 135//5 133//5 141//5
f 147//48 145//48 148//48 143//48 150//48 144//48 149//48 146//48
f 163//48 161//48 164//48 159//48 166//48 160//48 165//48 162//48
